<svg width="331" height="33" viewBox="0 0 331 33" fill="none" xmlns="http://www.w3.org/2000/svg">
<path d="M2 5V28.9842" stroke="url(#paint0_linear_90_99)" stroke-width="4" stroke-linecap="round"/>
<path d="M23 8.12842V25.8559" stroke="url(#paint1_linear_90_99)" stroke-width="4" stroke-linecap="round"/>
<path d="M44 11.2568V22.7275" stroke="url(#paint2_linear_90_99)" stroke-width="4" stroke-linecap="round"/>
<path d="M68.75 30.5962V0.564941H76.25V30.5962H68.75ZM58.7188 10.2837C58.4271 6.78369 58.6042 3.39827 59.25 0.127441L65.3125 2.84619L61.7812 10.2837H58.7188ZM59.7812 4.18994L59.25 0.127441H85.75L84.6562 4.18994H59.7812ZM83.2188 10.2837L79.6875 2.84619L85.75 0.127441C86.3958 3.39827 86.5729 6.78369 86.2812 10.2837H83.2188ZM65.3125 31.0649L65.5312 28.3149C66.1354 28.0649 66.8125 27.8462 67.5625 27.6587C68.3333 27.4712 69.125 27.3149 69.9375 27.1899L68.75 30.2837V25.3774H76.25V30.2837L75.1562 27.3774L79.8125 28.2524L79.5938 31.0649H65.3125ZM91.1875 30.8774V10.8774L98.4375 12.4712V30.8774H91.1875ZM88.5625 31.0649L88.7812 28.4399C89.3646 28.1483 89.9479 27.9087 90.5312 27.7212C91.1354 27.5337 91.7396 27.367 92.3438 27.2212L91.1875 30.2837V25.3774H98.4375V30.2837L97.4062 27.5649L102.688 28.3774L102.469 31.0649H88.5625ZM96.3125 15.8774L95.6875 14.6274C96.8542 11.7941 98.1042 9.75244 99.4375 8.50244C100.792 7.25244 102.417 6.62744 104.312 6.62744C104.604 6.62744 104.875 6.64827 105.125 6.68994C105.375 6.71077 105.594 6.75244 105.781 6.81494L105.312 12.5024C104.771 12.3983 104.229 12.3254 103.688 12.2837C103.146 12.242 102.698 12.2212 102.344 12.2212C101.135 12.2212 100.062 12.5129 99.125 13.0962C98.1875 13.6587 97.25 14.5858 96.3125 15.8774ZM91.1875 14.9712V10.9712L92.4375 13.0962L88.125 10.7212L88.3125 8.59619C89.4375 8.09619 90.6979 7.67952 92.0938 7.34619C93.5104 7.01286 94.9583 6.78369 96.4375 6.65869L98.1875 12.2524L91.1875 14.9712ZM117.812 31.5962C112.5 31.5962 109.844 29.1587 109.844 24.2837V10.1274L117.094 10.4712V23.2837C117.094 24.617 117.333 25.5858 117.812 26.1899C118.292 26.7941 119.062 27.0962 120.125 27.0962C122.479 27.0962 124.812 26.1691 127.125 24.3149L127.719 26.6587C124.927 29.9504 121.625 31.5962 117.812 31.5962ZM109.844 14.9712V10.9712L111.094 12.3774L107.375 10.2837L107.594 7.90869C109.635 7.13786 112.135 6.72119 115.094 6.65869H117.094V11.6274L109.844 14.9712ZM131.656 29.2212L124.406 27.9712V10.1899L131.656 10.5024V29.2212ZM124.406 14.9712V10.9712L125.656 12.4087L121.656 10.1899L121.844 8.00244C122.885 7.60661 124.083 7.29411 125.438 7.06494C126.792 6.81494 128.198 6.67952 129.656 6.65869H131.656V11.6274L124.406 14.9712ZM126.406 31.2212L124.906 26.7212L131.656 25.1274V29.1587L130.531 27.0962L134.219 28.1899L134 30.8149C132.125 31.1274 129.594 31.2629 126.406 31.2212ZM145.531 31.5649C142.219 31.5649 139.417 30.8149 137.125 29.3149C136.917 28.3358 136.771 27.2733 136.688 26.1274C136.604 24.9816 136.594 23.8254 136.656 22.6587H139.969L142.844 28.0337L140.875 26.4087C142.458 27.4295 144.177 27.9399 146.031 27.9399C148.344 27.9399 149.5 27.1483 149.5 25.5649C149.5 24.3774 148.552 23.492 146.656 22.9087L143.531 21.9399C139.135 20.5858 136.938 18.0962 136.938 14.4712C136.938 12.0129 137.812 10.0649 139.562 8.62744C141.333 7.16911 143.708 6.43994 146.688 6.43994C149.396 6.43994 151.885 6.99202 154.156 8.09619C154.552 9.88786 154.719 11.9191 154.656 14.1899H151.219L148.344 8.81494L151.344 11.5337C149.552 10.5545 147.833 10.0649 146.188 10.0649C144.271 10.0649 143.312 10.7733 143.312 12.1899C143.312 13.3983 144.333 14.3149 146.375 14.9399L149.5 15.9087C151.771 16.617 153.417 17.5962 154.438 18.8462C155.479 20.0754 156 21.5545 156 23.2837C156 25.8045 155.052 27.8149 153.156 29.3149C151.281 30.8149 148.74 31.5649 145.531 31.5649ZM168.469 31.4399C163.344 31.4399 160.781 29.0962 160.781 24.4087V9.15869L161.062 6.93994L162.938 0.939941H168.031V23.4712C168.031 24.742 168.26 25.6587 168.719 26.2212C169.198 26.7837 169.958 27.0649 171 27.0649C171.938 27.0649 173.135 26.8879 174.594 26.5337L174.344 30.1587C172.865 31.0129 170.906 31.4399 168.469 31.4399ZM157.406 10.8774L157.625 8.06494C158.667 7.60661 159.812 7.23161 161.062 6.93994H174.438L174.125 10.8774H157.406Z" fill="#FF1F00"/>
<path d="M205.882 31.6889C204.842 31.6889 204.098 31.3929 203.65 30.8009C203.202 30.1929 202.978 29.3049 202.978 28.1369C202.978 26.9689 203.354 24.2809 204.106 20.0729H203.722C202.746 21.3529 201.938 22.8809 201.298 24.6569C200.658 26.4329 200.266 28.0329 200.122 29.4569C199.338 30.1929 198.434 30.5609 197.41 30.5609C196.994 30.5609 196.626 30.4169 196.306 30.1289C196.002 29.8249 195.698 29.3049 195.394 28.5689C194.802 27.0809 194.378 24.2489 194.122 20.0729H193.738C192.954 23.5129 192.562 25.9369 192.562 27.3449C192.562 28.7529 192.802 29.8409 193.282 30.6089C192.322 31.3289 191.322 31.6889 190.282 31.6889C189.242 31.6889 188.498 31.3929 188.05 30.8009C187.602 30.1929 187.378 29.2969 187.378 28.1129C187.378 26.9129 187.882 23.5289 188.89 17.9609L187.618 15.3929C189.426 14.2249 191.074 13.6409 192.562 13.6409C193.218 13.6409 193.77 13.7129 194.218 13.8569C194.682 13.9849 195.122 14.2409 195.538 14.6249C195.97 15.0089 196.322 15.5449 196.594 16.2329C197.218 17.7849 197.666 20.0489 197.938 23.0249H198.226C199.058 20.5769 200.21 18.4729 201.682 16.7129C202.482 15.7689 203.434 15.0249 204.538 14.4809C205.658 13.9369 206.866 13.6649 208.162 13.6649C209.394 13.6649 210.01 14.4089 210.01 15.8969C210.01 16.3929 209.698 18.2409 209.074 21.4409C208.466 24.6249 208.162 26.5209 208.162 27.1289C208.162 28.6809 208.402 29.8409 208.882 30.6089C207.922 31.3289 206.922 31.6889 205.882 31.6889ZM221.053 28.1129L220.813 27.9929C220.381 29.1449 219.757 30.0489 218.941 30.7049C218.141 31.3449 217.245 31.6649 216.253 31.6649C214.893 31.6649 213.805 31.1529 212.989 30.1289C212.173 29.1049 211.765 27.7369 211.765 26.0249C211.765 23.3689 212.653 21.1449 214.429 19.3529C216.221 17.5609 218.445 16.6649 221.101 16.6649C221.789 16.6649 222.421 16.7289 222.997 16.8569C223.093 17.3049 223.149 17.6969 223.165 18.0329C223.965 17.5209 224.789 17.2649 225.637 17.2649C226.805 17.2649 227.389 17.8969 227.389 19.1609C227.389 19.6089 227.133 20.9609 226.621 23.2169C226.125 25.4729 225.877 27.1449 225.877 28.2329C225.877 29.3209 226.125 30.0729 226.621 30.4889C225.725 31.2729 224.789 31.6649 223.813 31.6649C222.853 31.6649 222.149 31.3769 221.701 30.8009C221.269 30.2249 221.053 29.3289 221.053 28.1129ZM216.277 24.8489C216.277 25.6329 216.437 26.2409 216.757 26.6729C217.093 27.0889 217.565 27.2969 218.173 27.2969C218.781 27.2969 219.381 27.0729 219.973 26.6249C220.565 26.1769 221.061 25.5609 221.461 24.7769C221.605 23.1609 221.917 21.2489 222.397 19.0409C220.781 19.0409 219.357 19.6249 218.125 20.7929C216.893 21.9609 216.277 23.3129 216.277 24.8489ZM229.797 28.6889C229.797 28.0489 229.957 26.8089 230.277 24.9689C230.613 23.1289 230.957 21.4489 231.309 19.9289L230.061 18.0089C232.061 17.1129 233.461 16.6649 234.261 16.6649C235.077 16.6649 235.485 17.1769 235.485 18.2009C235.485 18.7609 235.221 19.9289 234.693 21.7049L234.933 21.8249C236.085 18.3849 237.517 16.6649 239.229 16.6649C240.013 16.6649 240.613 16.9049 241.029 17.3849C241.445 17.8649 241.653 18.4009 241.653 18.9929C241.653 19.8729 241.325 20.6249 240.669 21.2489C240.013 21.8729 239.029 22.1849 237.717 22.1849C235.733 22.1849 234.741 24.2249 234.741 28.3049C234.741 29.2969 234.909 30.0249 235.245 30.4889C234.253 31.2729 233.341 31.6649 232.509 31.6649C230.701 31.6649 229.797 30.6729 229.797 28.6889ZM244.636 16.1369L243.292 14.2169C245.292 13.0489 246.868 12.4649 248.02 12.4649C248.676 12.4649 249.14 12.6009 249.412 12.8729C249.684 13.1289 249.82 13.5689 249.82 14.1929C249.82 14.8009 249.716 15.6569 249.508 16.7609C249.316 17.8649 249.052 19.1689 248.716 20.6729C248.396 22.1769 248.164 23.3849 248.02 24.2969L249.532 22.9529C249.676 22.8249 249.908 22.6249 250.228 22.3529C250.564 22.0649 250.796 21.8569 250.924 21.7289C251.068 21.6009 251.26 21.4249 251.5 21.2009C251.74 20.9609 251.916 20.7609 252.028 20.6009C252.14 20.4409 252.268 20.2569 252.412 20.0489C252.636 19.6969 252.748 19.3049 252.748 18.8729C252.748 18.4249 252.684 18.0329 252.556 17.6969C253.692 17.0089 254.764 16.6649 255.772 16.6649C256.444 16.6649 256.98 16.8809 257.38 17.3129C257.78 17.7289 257.98 18.3369 257.98 19.1369C257.98 19.9369 257.612 20.7449 256.876 21.5609C256.156 22.3609 255.26 23.0649 254.188 23.6729C254.684 25.3209 255.324 26.8329 256.108 28.2089C256.892 29.5849 257.548 30.4089 258.076 30.6809C257.436 31.3369 256.444 31.6649 255.1 31.6649C254.108 31.6649 253.268 31.3289 252.58 30.6569C251.908 29.9849 251.308 28.8809 250.78 27.3449L250.18 25.6409L247.708 26.8649C247.692 27.0409 247.684 27.3049 247.684 27.6569C247.684 28.9849 247.932 29.9289 248.428 30.4889C247.308 31.2729 246.292 31.6649 245.38 31.6649C244.468 31.6649 243.796 31.3689 243.364 30.7769C242.948 30.1689 242.74 29.3369 242.74 28.2809C242.74 27.2249 243.036 25.0649 243.628 21.8009C244.22 18.5369 244.556 16.6489 244.636 16.1369ZM266.491 31.6649C264.299 31.6649 262.603 31.0969 261.403 29.9609C260.219 28.8249 259.627 27.2889 259.627 25.3529C259.627 22.7769 260.507 20.6889 262.267 19.0889C264.043 17.4729 266.267 16.6649 268.939 16.6649C270.427 16.6649 271.555 17.0009 272.323 17.6729C273.091 18.3289 273.475 19.2009 273.475 20.2889C273.475 21.7769 272.747 23.0169 271.291 24.0089C269.851 24.9849 267.619 25.4809 264.595 25.4969C264.643 26.5209 264.875 27.3289 265.291 27.9209C265.707 28.4969 266.227 28.7849 266.851 28.7849C267.475 28.7849 268.011 28.5769 268.459 28.1609C268.923 27.7449 269.155 27.0649 269.155 26.1209C271.491 26.1209 272.659 26.6729 272.659 27.7769C272.659 28.7209 272.083 29.6089 270.931 30.4409C269.779 31.2569 268.299 31.6649 266.491 31.6649ZM268.531 19.4729C267.715 19.4729 266.963 19.8809 266.275 20.6969C265.603 21.5129 265.115 22.4729 264.811 23.5769C266.411 23.4489 267.611 23.0889 268.411 22.4969C269.227 21.8889 269.635 21.2489 269.635 20.5769C269.635 20.2569 269.531 19.9929 269.323 19.7849C269.131 19.5769 268.867 19.4729 268.531 19.4729ZM275.928 22.4009C275.816 21.9529 275.76 21.5369 275.76 21.1529C275.76 20.3689 275.992 19.7769 276.456 19.3769C276.92 18.9769 277.52 18.7769 278.256 18.7769C278.256 17.9449 278.04 17.0409 277.608 16.0649C278.392 15.4889 279.104 15.0569 279.744 14.7689C280.4 14.4649 281.088 14.3129 281.808 14.3129C282.528 14.3129 283.024 14.4489 283.296 14.7209C283.584 14.9769 283.728 15.3769 283.728 15.9209C283.728 16.4649 283.616 17.3129 283.392 18.4649C284.032 18.3689 284.68 18.2329 285.336 18.0569C285.448 18.3929 285.504 18.8249 285.504 19.3529C285.504 19.8809 285.296 20.3769 284.88 20.8409C284.48 21.2889 283.888 21.5129 283.104 21.5129H282.744C282.168 24.1209 281.88 26.1289 281.88 27.5369C281.88 28.9449 282.128 29.9289 282.624 30.4889C281.728 31.2729 280.776 31.6649 279.768 31.6649C278.76 31.6649 278.032 31.3689 277.584 30.7769C277.152 30.1689 276.936 29.2329 276.936 27.9689C276.936 27.2009 277.216 25.1849 277.776 21.9209C277.136 22.0329 276.52 22.1929 275.928 22.4009Z" fill="#052C15"/>
<defs>
<linearGradient id="paint0_linear_90_99" x1="2" y1="16.9921" x2="3" y2="16.9921" gradientUnits="userSpaceOnUse">
<stop stop-color="#EC008C"/>
<stop offset="1" stop-color="#FC6767"/>
</linearGradient>
<linearGradient id="paint1_linear_90_99" x1="23" y1="16.9921" x2="24" y2="16.9921" gradientUnits="userSpaceOnUse">
<stop stop-color="#E65C00"/>
<stop offset="1" stop-color="#F9D423"/>
</linearGradient>
<linearGradient id="paint2_linear_90_99" x1="-nan" y1="-nan" x2="-nan" y2="-nan" gradientUnits="userSpaceOnUse">
<stop stop-color="#00D2FF"/>
<stop offset="1" stop-color="#3A7BD5"/>
</linearGradient>
</defs>
</svg>
