<svg width="22" height="28" viewBox="0 0 22 28" fill="none" xmlns="http://www.w3.org/2000/svg">
<path d="M20 7.33345H16V6.00015C16 4.58565 15.4401 3.22905 14.4401 2.22885C13.4401 1.22875 12.08 0.666748 10.67 0.666748C9.26004 0.666748 7.90002 1.22875 6.90002 2.22885C5.90002 3.22905 5.34009 4.58565 5.34009 6.00015V7.33345H1.34009C0.980088 7.33345 0.640015 7.47395 0.390015 7.72395C0.140015 7.97405 0 8.31315 0 8.66675V23.3334C0 24.3943 0.420044 25.4117 1.17004 26.1618C1.93004 26.912 2.94 27.3334 4 27.3334H17.3401C18.4001 27.3334 19.41 26.912 20.17 26.1618C20.92 25.4117 21.3401 24.3943 21.3401 23.3334V8.66675C21.3401 8.31315 21.2001 7.97405 20.9501 7.72395C20.7001 7.47395 20.36 7.33345 20 7.33345ZM8 6.00015C8 5.29285 8.28003 4.61465 8.78003 4.11455C9.28003 3.61445 9.96004 3.33345 10.67 3.33345C11.38 3.33345 12.0601 3.61445 12.5601 4.11455C13.0601 4.61465 13.3401 5.29285 13.3401 6.00015V7.33345H8V6.00015ZM18.67 23.3334C18.67 23.687 18.53 24.0262 18.28 24.2762C18.03 24.5263 17.6901 24.6668 17.3401 24.6668H4C3.65 24.6668 3.31006 24.5263 3.06006 24.2762C2.81006 24.0262 2.67004 23.687 2.67004 23.3334V10.0001H5.34009V11.3335C5.34009 11.687 5.4801 12.0262 5.7301 12.2762C5.9801 12.5263 6.32004 12.6667 6.67004 12.6667C7.02004 12.6667 7.35999 12.5263 7.60999 12.2762C7.85999 12.0262 8 11.687 8 11.3335V10.0001H13.3401V11.3335C13.3401 11.687 13.4801 12.0262 13.7301 12.2762C13.9801 12.5263 14.32 12.6667 14.67 12.6667C15.02 12.6667 15.36 12.5263 15.61 12.2762C15.86 12.0262 16 11.687 16 11.3335V10.0001H18.67V23.3334Z" fill="#403C39"/>
</svg>
