<svg width="80" height="80" viewBox="0 0 80 80" fill="none" xmlns="http://www.w3.org/2000/svg">
<circle cx="40" cy="40" r="38.5" stroke="#0E703D" stroke-width="3"/>
<path d="M58.2231 27.0884C51.5451 22.676 42.6693 21.6717 35.296 23.0024C27.0469 15.0458 17.803 18.7055 16 19.7576C16 19.7576 22.3437 25.1483 21.3134 29.8696C13.803 37.5259 17.3733 46.0502 21.3134 50.0753C22.3437 54.7967 16 60.1873 16 60.1873C17.7856 61.2429 27.0043 64.8913 35.296 56.9755C42.6528 58.2976 51.5286 57.3019 58.2231 52.8818C68.5755 46.2724 68.6094 33.7316 58.2231 27.0875V27.0884ZM41.5365 52.8392C38.9548 52.8466 36.3833 52.5148 33.888 51.8522L32.1719 53.5094C31.2186 54.4338 30.1513 55.2328 28.9957 55.887C27.5936 56.5929 26.0705 57.0268 24.5069 57.1656C24.5938 57.0111 24.6701 56.8566 24.7474 56.7108C26.4644 53.5279 26.9274 50.6723 26.1363 48.1439C23.3125 45.9208 21.6224 43.0797 21.6224 39.9729C21.6224 32.8549 30.5408 27.0884 41.5365 27.0884C52.5321 27.0884 61.4505 32.8549 61.4505 39.9729C61.4505 47.091 52.5321 52.8392 41.5365 52.8392ZM31.9826 43.0371C31.1943 43.0483 30.4336 42.7465 29.8674 42.1978C29.3012 41.6491 28.9755 40.8984 28.9618 40.1101C28.901 36.17 34.8498 36.084 34.9097 40.0154V40.0597C34.9134 40.4476 34.8406 40.8324 34.6954 41.1921C34.5502 41.5518 34.3356 41.8794 34.0637 42.1561C33.7919 42.4327 33.4682 42.6531 33.1111 42.8046C32.754 42.9561 32.3705 43.0357 31.9826 43.0389V43.0371ZM38.3863 40.1101C38.3177 36.17 44.2665 36.0753 44.3351 40.0068V40.0597C44.3689 43.9729 38.4549 44.0154 38.3863 40.1101ZM50.8325 43.0371C50.044 43.0483 49.2833 42.7465 48.7169 42.1979C48.1505 41.6492 47.8247 40.8985 47.8108 40.1101C47.7509 36.17 53.6996 36.084 53.7595 40.0154V40.0597C53.7645 40.4479 53.6925 40.8333 53.5478 41.1936C53.4031 41.5538 53.1885 41.8819 52.9164 42.1588C52.6443 42.4358 52.3201 42.6561 51.9624 42.8072C51.6047 42.9582 51.2207 43.037 50.8325 43.0389V43.0371Z" fill="#0E703D"/>
</svg>
