<svg width="80" height="80" viewBox="0 0 80 80" fill="none" xmlns="http://www.w3.org/2000/svg">
<path d="M55.1973 24.3574C51.1055 20.2559 45.6562 18 39.8652 18C27.9121 18 18.1855 27.7266 18.1855 39.6797C18.1855 43.498 19.1816 47.2285 21.0762 50.5195L18 61.75L29.4941 58.7324C32.6582 60.4609 36.2227 61.3691 39.8555 61.3691H39.8652C51.8086 61.3691 61.75 51.6426 61.75 39.6895C61.75 33.8984 59.2891 28.459 55.1973 24.3574ZM39.8652 57.7168C36.623 57.7168 33.4492 56.8477 30.6855 55.207L30.0312 54.8164L23.2148 56.6035L25.0312 49.9531L24.6016 49.2695C22.7949 46.3984 21.8477 43.0879 21.8477 39.6797C21.8477 29.748 29.9336 21.6621 39.875 21.6621C44.6895 21.6621 49.2109 23.5371 52.6094 26.9453C56.0078 30.3535 58.0977 34.875 58.0879 39.6895C58.0879 49.6309 49.7969 57.7168 39.8652 57.7168ZM49.748 44.2207C49.2109 43.9473 46.5449 42.6387 46.0469 42.4629C45.5488 42.2773 45.1875 42.1895 44.8262 42.7363C44.4648 43.2832 43.4297 44.4941 43.1074 44.8652C42.7949 45.2266 42.4727 45.2754 41.9355 45.002C38.752 43.4102 36.6621 42.1602 34.5625 38.5566C34.0059 37.5996 35.1191 37.668 36.1543 35.5977C36.3301 35.2363 36.2422 34.9238 36.1055 34.6504C35.9688 34.377 34.8848 31.7109 34.4355 30.627C33.9961 29.5723 33.5469 29.7188 33.2148 29.6992C32.9023 29.6797 32.541 29.6797 32.1797 29.6797C31.8184 29.6797 31.2324 29.8164 30.7344 30.3535C30.2363 30.9004 28.8398 32.209 28.8398 34.875C28.8398 37.541 30.7832 40.1191 31.0469 40.4805C31.3203 40.8418 34.8652 46.3105 40.3047 48.6641C43.7422 50.1484 45.0898 50.2754 46.8086 50.0215C47.8535 49.8652 50.0117 48.7129 50.4609 47.4434C50.9102 46.1738 50.9102 45.0898 50.7734 44.8652C50.6465 44.6211 50.2852 44.4844 49.748 44.2207Z" fill="#0E703D"/>
<circle cx="40" cy="40" r="38.5" stroke="#0E703D" stroke-width="3"/>
</svg>
